<svg xmlns="http://www.w3.org/2000/svg" xmlns:xlink="http://www.w3.org/1999/xlink" width="152" zoomAndPan="magnify" viewBox="0 0 114 36.000001" height="48" preserveAspectRatio="xMidYMid meet" version="1.0"><defs><g/><clipPath id="id1"><path d="M 90 8.625 L 103.847656 8.625 L 103.847656 20 L 90 20 Z M 90 8.625 " clip-rule="nonzero"/></clipPath><clipPath id="id2"><path d="M 84.148438 15.300781 L 97.582031 15.300781 L 97.582031 26.046875 L 84.148438 26.046875 Z M 84.148438 15.300781 " clip-rule="nonzero"/></clipPath></defs><g clip-path="url(#id1)"><path fill="#ffffff" d="M 93.226562 10.234375 L 101.234375 10.234375 C 101.828125 10.234375 102.308594 10.703125 102.308594 11.289062 L 102.308594 16.558594 C 102.308594 17.140625 101.828125 17.613281 101.234375 17.613281 L 93.226562 17.613281 C 92.632812 17.613281 92.152344 17.140625 92.152344 16.558594 L 92.152344 11.289062 C 92.152344 10.703125 92.632812 10.234375 93.226562 10.234375 Z M 101.234375 8.726562 L 93.226562 8.726562 C 91.785156 8.726562 90.613281 9.871094 90.613281 11.289062 L 90.613281 16.558594 C 90.613281 17.972656 91.785156 19.117188 93.226562 19.117188 L 101.234375 19.117188 C 102.675781 19.117188 103.847656 17.972656 103.847656 16.558594 L 103.847656 11.289062 C 103.847656 9.871094 102.675781 8.726562 101.234375 8.726562 " fill-opacity="1" fill-rule="nonzero"/></g><path fill="#ffffff" d="M 91.226562 12.191406 L 91.226562 13.695312 L 90.457031 13.695312 C 89.875 13.695312 89.398438 14.148438 89.378906 14.714844 L 89.378906 20.023438 C 89.378906 20.59375 89.84375 21.054688 90.421875 21.074219 L 90.457031 21.078125 L 98.460938 21.078125 C 99.042969 21.078125 99.519531 20.621094 99.539062 20.058594 L 99.539062 18.515625 L 101.078125 18.515625 L 101.078125 20.023438 C 101.078125 21.417969 99.933594 22.554688 98.511719 22.582031 L 90.457031 22.582031 C 89.027344 22.582031 87.867188 21.460938 87.839844 20.070312 L 87.839844 14.75 C 87.839844 13.351562 88.984375 12.214844 90.410156 12.191406 L 91.226562 12.191406 " fill-opacity="1" fill-rule="nonzero"/><g clip-path="url(#id2)"><path fill="#ffffff" d="M 88.304688 15.65625 L 88.304688 17.160156 L 86.761719 17.160156 C 86.179688 17.160156 85.707031 17.613281 85.6875 18.179688 L 85.6875 23.484375 C 85.6875 24.054688 86.148438 24.519531 86.726562 24.539062 L 94.769531 24.539062 C 95.351562 24.539062 95.824219 24.085938 95.84375 23.523438 L 95.84375 21.980469 L 97.382812 21.980469 L 97.382812 23.484375 C 97.382812 24.882812 96.242188 26.019531 94.820312 26.042969 L 94.769531 26.046875 L 86.761719 26.046875 C 85.335938 26.046875 84.171875 24.925781 84.148438 23.535156 L 84.148438 18.214844 C 84.148438 16.816406 85.289062 15.679688 86.714844 15.65625 L 88.304688 15.65625 " fill-opacity="1" fill-rule="nonzero"/></g><path fill="#ffffff" d="M 99.421875 11.605469 C 99.667969 11.375 100.058594 11.382812 100.292969 11.621094 C 100.519531 11.855469 100.519531 12.21875 100.296875 12.449219 L 100.273438 12.476562 L 96.730469 15.789062 C 96.5 16.007812 96.136719 16.011719 95.894531 15.800781 L 95.871094 15.78125 L 94.332031 14.273438 C 94.09375 14.039062 94.09375 13.65625 94.332031 13.421875 C 94.566406 13.195312 94.9375 13.183594 95.179688 13.398438 L 96.316406 14.511719 L 99.421875 11.605469 " fill-opacity="1" fill-rule="nonzero"/><g fill="#ffffff" fill-opacity="1"><g transform="translate(6.569648, 25.240278)"><g><path d="M 8.953125 0 L 4.546875 0 L 4.546875 -12.703125 L 0.5625 -12.703125 L 0.5625 -16.3125 L 12.921875 -16.3125 L 12.921875 -12.703125 L 8.953125 -12.703125 Z M 8.953125 0 "/></g></g></g><g fill="#ffffff" fill-opacity="1"><g transform="translate(20.057343, 25.240278)"><g><path d="M 17.015625 -8.171875 C 17.015625 -5.429688 16.34375 -3.347656 15 -1.921875 C 13.65625 -0.492188 11.6875 0.21875 9.09375 0.21875 C 6.53125 0.21875 4.566406 -0.492188 3.203125 -1.921875 C 1.835938 -3.359375 1.15625 -5.453125 1.15625 -8.203125 C 1.15625 -10.910156 1.832031 -12.976562 3.1875 -14.40625 C 4.550781 -15.84375 6.523438 -16.5625 9.109375 -16.5625 C 11.703125 -16.5625 13.664062 -15.847656 15 -14.421875 C 16.34375 -13.003906 17.015625 -10.921875 17.015625 -8.171875 Z M 5.796875 -8.171875 C 5.796875 -5.023438 6.894531 -3.453125 9.09375 -3.453125 C 10.207031 -3.453125 11.03125 -3.832031 11.5625 -4.59375 C 12.101562 -5.363281 12.375 -6.554688 12.375 -8.171875 C 12.375 -9.804688 12.097656 -11.007812 11.546875 -11.78125 C 11.003906 -12.5625 10.191406 -12.953125 9.109375 -12.953125 C 6.898438 -12.953125 5.796875 -11.359375 5.796875 -8.171875 Z M 5.796875 -8.171875 "/></g></g></g><g fill="#ffffff" fill-opacity="1"><g transform="translate(38.249011, 25.240278)"><g/></g></g><g fill="#ffffff" fill-opacity="1"><g transform="translate(44.179138, 25.240278)"><g><path d="M 15.609375 -8.5 C 15.609375 -5.78125 14.859375 -3.679688 13.359375 -2.203125 C 11.859375 -0.734375 9.75 0 7.03125 0 L 1.765625 0 L 1.765625 -16.3125 L 7.40625 -16.3125 C 10.019531 -16.3125 12.039062 -15.640625 13.46875 -14.296875 C 14.894531 -12.960938 15.609375 -11.03125 15.609375 -8.5 Z M 11.03125 -8.34375 C 11.03125 -9.832031 10.734375 -10.9375 10.140625 -11.65625 C 9.554688 -12.382812 8.660156 -12.75 7.453125 -12.75 L 6.171875 -12.75 L 6.171875 -3.609375 L 7.15625 -3.609375 C 8.488281 -3.609375 9.46875 -3.992188 10.09375 -4.765625 C 10.71875 -5.546875 11.03125 -6.738281 11.03125 -8.34375 Z M 11.03125 -8.34375 "/></g></g></g><g fill="#ffffff" fill-opacity="1"><g transform="translate(60.932894, 25.240278)"><g><path d="M 17.015625 -8.171875 C 17.015625 -5.429688 16.34375 -3.347656 15 -1.921875 C 13.65625 -0.492188 11.6875 0.21875 9.09375 0.21875 C 6.53125 0.21875 4.566406 -0.492188 3.203125 -1.921875 C 1.835938 -3.359375 1.15625 -5.453125 1.15625 -8.203125 C 1.15625 -10.910156 1.832031 -12.976562 3.1875 -14.40625 C 4.550781 -15.84375 6.523438 -16.5625 9.109375 -16.5625 C 11.703125 -16.5625 13.664062 -15.847656 15 -14.421875 C 16.34375 -13.003906 17.015625 -10.921875 17.015625 -8.171875 Z M 5.796875 -8.171875 C 5.796875 -5.023438 6.894531 -3.453125 9.09375 -3.453125 C 10.207031 -3.453125 11.03125 -3.832031 11.5625 -4.59375 C 12.101562 -5.363281 12.375 -6.554688 12.375 -8.171875 C 12.375 -9.804688 12.097656 -11.007812 11.546875 -11.78125 C 11.003906 -12.5625 10.191406 -12.953125 9.109375 -12.953125 C 6.898438 -12.953125 5.796875 -11.359375 5.796875 -8.171875 Z M 5.796875 -8.171875 "/></g></g></g></svg>